<?xml version="1.0" standalone="no"?>
<!DOCTYPE svg PUBLIC "-//W3C//DTD SVG 20010904//EN"
 "http://www.w3.org/TR/2001/REC-SVG-20010904/DTD/svg10.dtd">
<svg version="1.0" xmlns="http://www.w3.org/2000/svg"
 width="400.000000pt" height="400.000000pt" viewBox="0 0 400.000000 400.000000"
 preserveAspectRatio="xMidYMid meet">
<metadata>
Created by potrace 1.14, written by Peter Selinger 2001-2017
</metadata>
<g transform="translate(0.000000,400.000000) scale(0.100000,-0.100000)"
fill="#000000" stroke="none">
<path d="M0 2000 l0 -2000 2000 0 2000 0 0 2000 0 2000 -2000 0 -2000 0 0
-2000z m710 850 c40 -12 90 -71 90 -107 0 -21 -4 -23 -49 -23 -45 0 -50 2 -61
30 -12 28 -16 30 -64 30 -54 0 -76 -12 -76 -42 0 -25 33 -43 127 -69 109 -29
134 -54 134 -134 0 -51 -3 -61 -32 -91 -23 -24 -47 -36 -86 -44 -125 -26 -236
26 -257 123 -6 27 -6 27 46 27 50 0 54 -2 68 -33 26 -56 122 -63 157 -11 12
18 11 24 -7 46 -15 20 -38 30 -97 43 -65 15 -84 24 -115 55 -29 29 -38 46 -38
72 0 42 45 114 80 127 34 13 137 13 180 1z m958 -32 c-3 -32 -5 -33 -50 -36
l-48 -3 0 35 0 36 51 0 50 0 -3 -32z m492 -193 l0 -225 -45 0 -45 0 0 225 0
225 45 0 45 0 0 -225z m-1064 95 c32 -12 73 -81 80 -133 8 -59 -26 -139 -71
-167 -44 -27 -147 -28 -191 -1 -73 45 -95 173 -43 253 39 60 137 81 225 48z
m376 -1 c24 -13 58 -64 58 -88 0 -18 -6 -21 -44 -21 -35 0 -46 4 -51 18 -9 30
-51 45 -83 30 -54 -26 -68 -102 -29 -159 31 -47 73 -47 102 -2 17 28 26 32 63
33 39 0 42 -2 42 -26 0 -17 -14 -40 -39 -65 -37 -38 -41 -39 -105 -39 -74 0
-95 8 -136 50 -77 79 -32 255 70 280 38 9 125 3 152 -11z m505 -5 c26 -16 32
-51 35 -207 l3 -107 -42 0 c-23 0 -43 5 -45 12 -3 9 -12 9 -36 -1 -44 -18
-130 -16 -152 4 -26 23 -43 71 -36 97 14 54 40 72 122 83 83 11 109 29 85 59
-22 27 -101 19 -101 -10 0 -10 -13 -14 -45 -14 -49 0 -54 9 -34 54 11 24 41
41 89 50 40 7 133 -4 157 -20z m-312 -149 l0 -160 -47 -3 -48 -3 0 166 0 166
48 -3 47 -3 0 -160z m-1105 -545 l0 -230 -40 0 c-29 0 -42 5 -50 19 -11 21
-14 357 -4 410 6 29 9 31 50 31 l44 0 0 -230z m1075 0 l0 -225 -42 -3 -43 -3
0 231 0 231 43 -3 42 -3 0 -225z m150 0 l0 -225 -24 -3 c-12 -2 -34 -1 -47 2
l-24 6 0 219 c0 120 3 221 7 225 4 4 25 6 48 4 l40 -3 0 -225z m153 188 l3
-38 -44 0 c-49 0 -58 10 -50 54 5 25 9 27 47 24 40 -3 41 -4 44 -40z m-838
-38 c5 -42 7 -45 38 -48 28 -3 32 -7 32 -33 0 -27 -3 -29 -35 -29 l-35 0 0
-94 c0 -99 3 -106 51 -106 17 0 20 -6 17 -32 -3 -29 -7 -33 -35 -36 -52 -5
-110 15 -117 41 -3 12 -6 68 -6 125 l0 102 -25 0 c-21 0 -25 5 -25 30 0 25 4
30 25 30 23 0 25 4 25 43 0 53 5 59 50 55 34 -3 35 -5 40 -48z m-200 -70 c35
-37 42 -80 38 -210 l-3 -95 -45 0 -45 0 -5 116 c-5 124 -15 149 -55 149 -46 0
-60 -33 -65 -153 l-5 -112 -40 0 -40 0 -3 163 -2 162 40 0 c29 0 40 -4 40 -15
0 -20 7 -19 37 5 18 14 41 20 75 20 43 0 54 -4 78 -30z m532 5 c38 -25 67 -83
71 -140 l2 -30 -118 -3 c-117 -3 -118 -3 -111 -25 3 -12 11 -28 16 -34 15 -18
93 -16 112 2 8 8 32 15 55 15 l41 0 -19 -38 c-22 -43 -65 -62 -142 -62 -64 0
-110 27 -136 80 -49 97 -8 217 87 253 40 15 106 6 142 -18z m758 5 c17 -17 21
-18 26 -5 4 10 20 15 51 15 l45 0 -4 -178 c-3 -192 -8 -212 -63 -248 -39 -25
-142 -29 -184 -7 -40 21 -76 66 -67 82 4 6 25 11 46 11 29 0 42 -5 50 -19 12
-24 62 -36 89 -22 10 6 25 27 31 46 14 41 4 65 -15 38 -10 -14 -27 -18 -75
-18 -58 0 -64 2 -95 36 -24 27 -35 50 -40 86 -7 52 7 126 28 152 42 51 140 68
177 31z m431 -27 c27 -30 39 -53 44 -86 4 -25 4 -50 0 -56 -4 -7 -49 -11 -116
-11 -110 0 -110 0 -103 -22 3 -13 11 -29 16 -35 15 -18 93 -16 112 2 18 19 86
20 86 2 0 -23 -32 -59 -66 -73 -40 -17 -103 -18 -153 -3 -41 12 -84 69 -96
126 -13 64 25 145 89 185 24 15 44 18 90 15 54 -3 62 -7 97 -44z m354 23 c34
-34 46 -92 43 -208 l-3 -103 -45 0 -45 0 -5 123 c-4 94 -8 125 -20 132 -23 15
-46 12 -71 -9 -22 -18 -24 -29 -29 -132 -5 -123 -9 -129 -66 -115 l-24 6 0
160 0 160 40 0 c29 0 40 -4 40 -15 0 -19 3 -19 42 5 47 28 112 27 143 -4z
m367 -25 c47 -50 47 -75 -1 -79 -27 -3 -39 2 -62 27 -17 19 -38 31 -53 31 -30
0 -63 -39 -72 -86 -8 -45 22 -108 55 -112 40 -6 70 7 77 33 5 22 12 25 50 25
51 0 56 -15 24 -68 -24 -39 -73 -62 -133 -62 -66 0 -103 17 -137 63 -49 66
-41 168 18 228 38 39 68 49 136 46 55 -3 62 -7 98 -46z m316 20 c32 -24 43
-41 57 -87 9 -31 14 -63 11 -70 -4 -11 -31 -14 -116 -14 -117 0 -125 -4 -100
-51 13 -24 86 -27 116 -4 10 8 36 15 56 15 l38 0 -17 -36 c-21 -43 -65 -64
-137 -64 -70 0 -114 25 -144 80 -83 158 95 333 236 231z m-1720 -143 l-3 -163
-40 0 c-33 0 -40 4 -46 25 -9 32 -11 228 -3 269 6 29 9 31 50 31 l44 0 -2
-162z m-1378 -513 l5 -180 108 -3 107 -3 0 -44 0 -45 -154 0 -153 0 -7 38 c-3
20 -6 118 -6 218 0 199 2 207 60 202 l35 -3 5 -180z m694 169 c3 -9 6 -42 6
-75 0 -63 4 -67 34 -44 30 23 91 18 135 -9 30 -19 41 -34 50 -70 36 -143 -19
-246 -131 -246 -30 0 -54 7 -71 20 -25 20 -25 20 -30 -1 -5 -17 -12 -20 -44
-17 l-38 3 -3 215 c-1 118 0 220 2 227 8 19 82 17 90 -3z m-199 -119 c20 -8
39 -25 45 -39 5 -13 10 -82 11 -153 l1 -128 -41 -3 c-30 -2 -43 1 -47 12 -5
14 -9 14 -34 1 -16 -8 -51 -15 -78 -15 -85 0 -128 57 -102 135 12 37 25 43
140 65 57 11 72 23 62 49 -14 39 -63 42 -96 6 -18 -19 -33 -25 -65 -25 -44 0
-47 4 -31 44 21 57 154 86 235 51z"/>
<path d="M980 2661 c-52 -14 -58 -144 -9 -183 65 -54 136 34 109 134 -8 27
-18 39 -42 47 -17 6 -31 11 -32 10 -1 -1 -12 -4 -26 -8z"/>
<path d="M1840 2537 c-30 -10 -35 -17 -35 -42 0 -28 3 -30 42 -33 33 -2 44 1
57 20 9 12 16 33 16 45 0 27 -23 29 -80 10z"/>
<path d="M1297 2042 c-31 -34 -21 -42 48 -42 57 0 64 2 58 18 -15 43 -77 57
-106 24z"/>
<path d="M2112 2053 c-18 -7 -42 -57 -42 -88 0 -95 110 -131 136 -44 13 42 0
109 -23 127 -17 12 -47 15 -71 5z"/>
<path d="M2474 2052 c-6 -4 -16 -17 -23 -29 -12 -23 -11 -23 59 -23 74 0 76 2
42 43 -15 17 -58 23 -78 9z"/>
<path d="M3520 2040 c-33 -33 -24 -40 45 -40 37 0 65 4 65 10 0 19 -40 50 -65
50 -14 0 -34 -9 -45 -20z"/>
<path d="M1281 1418 c-54 -57 -27 -178 40 -178 75 0 109 112 52 172 -32 34
-65 36 -92 6z"/>
<path d="M985 1323 c-57 -13 -85 -26 -90 -44 -17 -51 68 -69 104 -23 20 26 29
75 14 73 -5 -1 -17 -3 -28 -6z"/>
</g>
</svg>
